<svg width="16" height="15" viewBox="0 0 16 15" fill="none" xmlns="http://www.w3.org/2000/svg">
<path d="M2.67725 2.24805C4.10303 0.822266 5.82178 0.109375 7.8335 0.109375C9.84521 0.109375 11.5542 0.822266 12.9604 2.24805C14.3862 3.6543 15.0991 5.36328 15.0991 7.375C15.0991 9.38672 14.3862 11.1055 12.9604 12.5312C11.5542 13.9375 9.84521 14.6406 7.8335 14.6406C5.82178 14.6406 4.10303 13.9375 2.67725 12.5312C1.271 11.1055 0.567871 9.38672 0.567871 7.375C0.567871 5.36328 1.271 3.6543 2.67725 2.24805ZM14.1616 7.375C14.1616 5.61719 13.5366 4.12305 12.2866 2.89258C11.0562 1.66211 9.57178 1.04688 7.8335 1.04688C6.07568 1.04688 4.58154 1.67188 3.35107 2.92188C2.12061 4.15234 1.50537 5.63672 1.50537 7.375C1.50537 9.13281 2.12061 10.627 3.35107 11.8574C4.60107 13.0879 6.09521 13.7031 7.8335 13.7031C9.59131 13.7031 11.0854 13.0879 12.3159 11.8574C13.5464 10.6074 14.1616 9.11328 14.1616 7.375ZM9.79639 9.95312L7.42334 8.22461C7.32568 8.16602 7.27686 8.07812 7.27686 7.96094V3.27344C7.27686 3.03906 7.39404 2.92188 7.62842 2.92188H8.03857C8.27295 2.92188 8.39014 3.03906 8.39014 3.27344V7.55078L10.4702 9.07422C10.646 9.21094 10.6655 9.36719 10.5288 9.54297L10.2944 9.89453C10.1577 10.0703 9.9917 10.0898 9.79639 9.95312Z" fill="#8C8D91"/>
</svg>
