<svg width="17" height="16" viewBox="0 0 17 16" fill="none" xmlns="http://www.w3.org/2000/svg">
<path d="M16.748 14.7324C16.8457 14.8301 16.8945 14.9375 16.8945 15.0547C16.8945 15.1914 16.8457 15.3086 16.748 15.4062L16.4258 15.7285C16.3281 15.8262 16.2109 15.875 16.0742 15.875C15.957 15.875 15.8496 15.8262 15.752 15.7285L13.3789 13.3555C12.7344 13.7852 12.0312 14 11.2695 14C10.2344 14 9.3457 13.6387 8.60352 12.916C7.88086 12.1738 7.51953 11.2852 7.51953 10.25C7.51953 9.21484 7.88086 8.33594 8.60352 7.61328C9.3457 6.87109 10.2344 6.5 11.2695 6.5C12.3047 6.5 13.1836 6.87109 13.9062 7.61328C14.6484 8.33594 15.0195 9.21484 15.0195 10.25C15.0195 11.0117 14.8047 11.7148 14.375 12.3594L16.748 14.7324ZM9.59961 11.9199C10.0684 12.3691 10.625 12.5938 11.2695 12.5938C11.9141 12.5938 12.4609 12.3691 12.9102 11.9199C13.3789 11.4512 13.6133 10.8945 13.6133 10.25C13.6133 9.60547 13.3789 9.05859 12.9102 8.60938C12.4609 8.14062 11.9141 7.90625 11.2695 7.90625C10.625 7.90625 10.0684 8.14062 9.59961 8.60938C9.15039 9.05859 8.92578 9.60547 8.92578 10.25C8.92578 10.8945 9.15039 11.4512 9.59961 11.9199ZM1.42578 14.4688H9.24805C9.87305 14.7617 10.5176 14.918 11.1816 14.9375C11.084 15.2109 10.9082 15.4355 10.6543 15.6113C10.4199 15.7871 10.1562 15.875 9.86328 15.875H1.42578C1.03516 15.875 0.703125 15.7383 0.429688 15.4648C0.15625 15.1914 0.0195312 14.8594 0.0195312 14.4688V2.28125C0.0195312 1.89063 0.15625 1.55859 0.429688 1.28516C0.703125 1.01172 1.03516 0.875 1.42578 0.875H7.40234C7.79297 0.875 8.125 1.01172 8.39844 1.28516L10.8594 3.74609C11.1328 4.01953 11.2695 4.35156 11.2695 4.74219V5.5625C10.5859 5.5625 9.91211 5.71875 9.24805 6.03125H6.81641C6.62109 6.03125 6.45508 5.96289 6.31836 5.82617C6.18164 5.68945 6.11328 5.52344 6.11328 5.32812V2.28125H1.42578V14.4688ZM7.51953 2.39844V4.625H9.74609L7.51953 2.39844Z" fill="#304C70"/>
</svg>
