<svg width="19" height="17" viewBox="0 0 19 17" fill="none" xmlns="http://www.w3.org/2000/svg">
<path d="M9.5 16.6621L8.22852 15.5137C6.7793 14.2012 5.72656 13.2305 5.07031 12.6016C4.41406 11.9727 3.67578 11.1934 2.85547 10.2637C2.0625 9.33398 1.51562 8.5 1.21484 7.76172C0.914062 6.99609 0.763672 6.2168 0.763672 5.42383C0.763672 4.08398 1.21484 2.94922 2.11719 2.01953C3.04688 1.08984 4.19531 0.625 5.5625 0.625C7.14844 0.625 8.46094 1.24023 9.5 2.4707C10.5391 1.24023 11.8516 0.625 13.4375 0.625C14.8047 0.625 15.9395 1.08984 16.8418 2.01953C17.7715 2.94922 18.2363 4.08398 18.2363 5.42383C18.2363 6.49023 17.8809 7.59766 17.1699 8.74609C16.459 9.89453 15.6797 10.8926 14.832 11.7402C14.0117 12.5879 12.6582 13.8594 10.7715 15.5547L9.5 16.6621Z" fill="#D25746"/>
</svg>
