<svg width="15" height="5" viewBox="0 0 15 5" fill="none" xmlns="http://www.w3.org/2000/svg">
<path d="M6.67871 1.26953C7.03418 0.914062 7.44434 0.736328 7.90918 0.736328C8.37402 0.736328 8.78418 0.914062 9.13965 1.26953C9.49512 1.625 9.67285 2.03516 9.67285 2.5C9.67285 2.96484 9.49512 3.375 9.13965 3.73047C8.78418 4.08594 8.37402 4.26367 7.90918 4.26367C7.44434 4.26367 7.03418 4.08594 6.67871 3.73047C6.32324 3.375 6.14551 2.96484 6.14551 2.5C6.14551 2.03516 6.32324 1.625 6.67871 1.26953ZM11.9287 1.26953C12.2842 0.914062 12.6943 0.736328 13.1592 0.736328C13.624 0.736328 14.0342 0.914062 14.3896 1.26953C14.7451 1.625 14.9229 2.03516 14.9229 2.5C14.9229 2.96484 14.7451 3.375 14.3896 3.73047C14.0342 4.08594 13.624 4.26367 13.1592 4.26367C12.6943 4.26367 12.2842 4.08594 11.9287 3.73047C11.5732 3.375 11.3955 2.96484 11.3955 2.5C11.3955 2.03516 11.5732 1.625 11.9287 1.26953ZM1.42871 1.26953C1.78418 0.914062 2.19434 0.736328 2.65918 0.736328C3.12402 0.736328 3.53418 0.914062 3.88965 1.26953C4.24512 1.625 4.42285 2.03516 4.42285 2.5C4.42285 2.96484 4.24512 3.375 3.88965 3.73047C3.53418 4.08594 3.12402 4.26367 2.65918 4.26367C2.19434 4.26367 1.78418 4.08594 1.42871 3.73047C1.07324 3.375 0.895508 2.96484 0.895508 2.5C0.895508 2.03516 1.07324 1.625 1.42871 1.26953Z" fill="#8C8D91"/>
</svg>
